<svg version="1.1" xmlns="http://www.w3.org/2000/svg" style="display: block;" viewBox="0 0 2048 882" width="1911" height="823" preserveAspectRatio="none">
<path transform="translate(0,0)" fill="rgb(218,91,45)" d="M 526.165 541.044 C 453.561 588.263 420.888 538.402 452.172 471.567 C 459.794 455.282 493.06 390.34 491.673 379.209 C 474.251 354.911 370.293 490.522 360.898 502.928 C 347.583 520.511 326.916 559.523 303.48 556.968 C 292.169 555.385 285.528 543.707 288.425 533.52 C 291.809 509.256 369.705 376.937 360.622 361.536 C 357.807 360.247 355.916 360.439 352.963 361.495 C 314.425 375.268 228.323 495.952 201.313 534.927 C 193.385 546.367 172.933 579.449 163.983 587.375 C 156.139 594.321 145.629 597.707 135.654 593.041 C 131.504 591.1 128.017 587.007 126.591 582.672 C 124.796 577.215 125.69 571.188 127.252 565.778 C 131.536 550.936 139.924 536.638 146.546 522.727 C 163.427 487.263 181.611 452.374 199.283 417.295 C 208.336 399.325 218.996 380.914 225.789 362.004 C 227.453 357.371 230.01 351.829 227.399 347.334 C 220.887 346.04 207.231 355.706 201.946 359.232 C 174.305 377.678 149.202 402.711 127.728 427.95 C 118.558 438.729 109.971 452.409 99.2113 461.498 C 94.8998 465.139 89.2823 468.3 83.4369 467.131 C 79.3016 466.304 75.8555 463.254 73.5924 459.806 C 71.4349 456.519 71.6667 452.142 72.4905 448.467 C 80.2476 413.862 166.445 336.009 198.208 316.533 C 213.551 307.126 233.8 297.093 252.355 301.718 C 260.14 303.658 266.346 308.845 270.318 315.758 C 277.658 328.532 275.1 345.159 271.298 358.611 C 267.803 370.977 263.222 383.148 258.989 395.283 C 289.472 366.751 318.148 335.003 355.746 315.484 C 376.331 304.798 403.458 302.236 410.585 330.489 C 414.768 353.94 403.829 380.187 396.393 402.921 C 424.38 376.805 470.537 329.246 512.577 333.158 C 546.382 336.303 543.644 374.412 532.804 396.943 C 519.683 426.702 503.283 455.11 489.393 484.529 C 485.619 492.528 474.533 518.164 481.946 525.868 C 491.742 536.05 514.605 521.48 525.443 518.03 C 531.35 495.936 544.615 476.475 564.813 465.588 C 576.519 459.278 588.535 455.514 601.917 459.492 C 607.482 461.146 623.838 468.357 626.977 473.565 C 627.824 476.296 626.205 480.791 625.383 483.153 C 620.213 498.026 607.102 515.282 609.055 531.311 C 609.809 537.499 621.851 533.873 625.175 531.869 C 649.193 517.384 677.483 485.015 690.217 459.931 C 687.81 451.092 686.873 444.057 691.042 435.712 C 695.637 426.515 714.6 423.245 717.324 435.446 C 718.982 442.872 713.403 452.329 719.664 456.232 C 728.235 460.715 745.337 453.202 749.016 466.008 C 753.83 482.764 713.309 520.741 727.647 533.292 C 747.015 538.415 780.948 501.57 790.969 487.4 C 799.128 475.863 804.695 462.436 812.283 449.811 C 826.867 425.784 839.352 399.004 856.62 376.928 C 862.68 369.181 878.587 378.589 873.396 388.548 C 859.709 414.811 839.542 441.664 827.365 468.578 C 839.153 462.654 851.487 457.33 864.912 461.364 C 876.509 464.848 882.526 475.877 878.31 487.381 C 870.849 507.743 851.222 514.337 833.028 522.037 C 836.771 528.15 838.678 531.707 846.292 533.523 C 858.992 536.552 873.98 528.82 884.836 523.098 C 886.441 491.863 908.49 458.772 939.008 458.324 C 983.628 457.669 957.705 512.091 931.912 520.993 C 929.343 521.88 912.081 531.877 911.898 532.483 C 914.687 535.45 918.867 535.751 922.753 535.913 C 939.263 536.6 957.227 523.93 968.59 512.985 C 986.683 495.557 998.792 479.524 1007.49 456.093 C 1001.15 455.929 966.135 457.751 982.92 436.683 C 985.984 432.836 1011.13 433.951 1018.16 434.031 C 1025.71 419.544 1032.23 405.842 1042.04 392.681 C 1051.57 379.891 1066.46 390.064 1062.33 400.463 C 1058.06 411.224 1049.36 422.774 1044.2 434.013 C 1054.94 433.889 1078.98 431.336 1087.86 437.896 C 1092.66 441.445 1089.85 449.081 1085.86 452.996 C 1078.37 456.031 1043.1 455.939 1033.01 456.014 C 1026.35 470.514 998.879 523.572 1023.23 533.202 C 1039.71 539.724 1064.76 515.377 1074.95 504.841 C 1086.78 492.806 1097.77 506.535 1092.41 515.311 C 1071.63 549.369 999.9 583.566 990.306 521.117 C 963.828 545.104 923.305 575.468 890.769 542.726 C 883.106 546.659 878.365 548.582 870.484 551.422 C 840.29 562.302 802.91 545.15 814.911 507.921 C 826.611 500.079 856.611 498.822 857.346 480.171 C 841.176 478.88 821.46 493.955 814.911 507.921 C 808.338 513.692 803.405 524.321 798.779 531.873 C 793.639 540.264 784.749 563.048 771.8 551.628 C 768.851 549.015 769.709 541.46 769.987 537.946 C 755.096 547.951 739.048 557.319 720.309 554.21 C 703.198 551.371 699.747 534.781 703.719 520.364 C 707.445 506.838 716.266 490.546 723.888 478.582 C 716.843 477.391 713.178 476.42 706.334 474.297 C 686.857 505.373 655.448 545.702 618.799 556.309 C 603.435 560.756 591.849 552.224 587.422 537.333 C 576.043 546.54 562.209 557.761 546.533 556.309 C 540.18 555.697 534.344 552.544 530.349 547.566 C 528.605 545.422 527.467 543.456 526.165 541.044 z M 560.092 531.929 C 569.796 525.915 604.511 493.025 598.738 480.783 C 595.249 478.17 591.037 478.615 586.729 479.028 C 576.452 482.14 570.522 486.295 563.12 494.107 C 556.66 500.925 538.274 527.229 551.375 533.824 C 555.453 533.899 556.27 533.494 560.092 531.929 z M 913.525 510.121 C 920.973 505.95 947.635 489.282 941.107 478.935 C 938.668 477.742 938.335 477.715 935.616 477.813 C 929.71 480.433 925.534 482.699 921.29 487.761 C 917.046 492.823 906.846 504.011 909.519 510.796 C 910.823 510.675 912.378 510.66 913.525 510.121 z"/>
<path transform="translate(0,0)" fill="rgb(151,60,34)" d="M 1334.51 300.364 C 1364.31 297.852 1373.1 327.529 1367.18 351.1 C 1363.76 364.726 1359.33 377.357 1354.8 390.611 C 1384.2 368.647 1437.6 302.581 1480.68 313.74 C 1515.19 322.678 1492.22 377.884 1484.45 399.495 C 1509.2 376.636 1530.82 352.141 1563.09 339.536 C 1580.97 332.551 1606.93 333.903 1611.93 355.699 C 1621.41 399.784 1579.13 446.243 1563.52 485.863 C 1560.3 494.032 1545.96 523.26 1558.96 529.07 C 1577.41 530.921 1594.66 514.826 1608 502.385 C 1613.97 496.825 1633.36 431.673 1650.85 461.749 C 1654.71 468.376 1637.74 489.113 1635.5 497.383 C 1633.74 503.927 1626.99 512.733 1630.51 522.099 C 1639.5 531.373 1659.84 514.857 1666.91 508.431 C 1676.4 499.805 1681.45 487.842 1689.82 478.131 C 1695.55 471.496 1702.32 465.838 1709.87 461.378 C 1726.07 451.822 1740.59 450.92 1757.4 459.782 C 1763.41 462.953 1767.06 462.447 1770.86 469.005 C 1773.17 480.391 1747.81 509.741 1754.44 525.131 C 1764.88 532.446 1798.32 495.022 1804.53 486.244 C 1810.74 477.463 1812.65 458.334 1826.23 457.433 C 1835.07 456.847 1833.92 468.767 1836.96 471.781 C 1847.58 464.886 1861.24 451.223 1874.32 461.76 C 1880.2 466.503 1880.55 472.295 1881.08 479.221 C 1892.34 469.16 1913.31 450.766 1927.62 470.032 C 1937.68 483.573 1903.87 523.204 1922.11 527.757 C 1936.06 531.241 1960.16 502.086 1973.45 504.637 C 1975.53 506.209 1975.54 505.803 1976.78 508 C 1977.93 510.02 1978.71 515.946 1977.66 517.767 C 1970.53 528.75 1955.85 537.668 1944.36 543.105 C 1929.55 550.113 1905.03 554.332 1897.3 535.369 C 1890.86 519.561 1899.73 500.849 1905.92 486.157 C 1892.05 495.786 1883.83 504.789 1873.19 517.853 C 1867.96 524.288 1857.12 542.262 1851.12 546.167 C 1848.47 547.872 1845.24 548.401 1842.19 547.63 C 1829.24 544.472 1837.79 528.616 1841.43 521.366 C 1848.07 508.118 1853.4 496.161 1857.68 481.957 C 1842.57 492.187 1829.04 504.593 1817.55 518.774 C 1812.11 525.583 1803.46 543.004 1797.48 546.808 C 1794.82 548.474 1791.6 548.976 1788.56 548.197 C 1785.13 547.284 1783.66 541.919 1781.75 538.615 C 1778.57 538.388 1768.51 545.238 1763.19 546.04 C 1745.03 548.779 1739.27 546.436 1732.59 529.716 L 1731.26 529.737 C 1714.16 546.178 1685.63 559.744 1672.91 530.332 C 1653.17 543.603 1622.39 560.48 1608.33 530.3 C 1591.43 543.798 1571.66 558.682 1549.18 561.008 C 1541.45 561.808 1530.52 557.786 1525.16 552.57 C 1486.12 514.579 1570.04 414.9 1567.89 382.778 C 1554.86 364.027 1490.6 441.517 1482.79 450.979 C 1467.9 469.142 1453.55 487.745 1439.77 506.764 C 1431.41 518.182 1423.04 530.345 1414.06 541.206 C 1410.44 544.976 1403.53 552.413 1398.45 553.99 C 1382.8 558.845 1370.79 545.358 1376.37 530.458 C 1382.34 514.526 1389.89 501.265 1397.26 486.561 C 1412.23 456.678 1427.9 427.853 1441.43 397.336 C 1444.54 390.311 1452.46 372.781 1450.39 364.483 C 1450.08 363.26 1448.68 363.138 1447.26 362.637 C 1440.27 363.592 1432.25 370.019 1426.83 374.369 C 1358.24 429.357 1310.49 505.856 1261.6 577.752 C 1258.69 581.918 1254.02 587.698 1250.01 590.713 C 1235.4 601.694 1212.97 591.951 1217.35 571.864 C 1224.22 540.407 1333.32 362.435 1323.16 347.782 C 1317.79 345.792 1308.49 352.424 1303.83 355.21 C 1262.79 379.754 1233.29 416.978 1203.23 453.18 C 1195.79 462.436 1176.2 461.159 1175.48 447.672 C 1174.74 433.919 1192.73 410.711 1201.44 400.579 C 1231.49 365.634 1286.86 305.425 1334.51 300.364 z M 1702.67 526.068 C 1715.39 519.761 1747.23 489.012 1744.08 475.862 C 1741.86 473.57 1739.71 473.73 1736.48 473.425 C 1723.19 474.794 1713.56 482.656 1705.4 492.69 C 1699.54 499.915 1688.18 517.016 1695.75 525.385 C 1698.9 526.505 1699.36 526.453 1702.67 526.068 z"/>
<path transform="translate(0,0)" fill="rgb(151,60,34)" d="M 1650.3 409.262 C 1659.55 406.342 1669.44 411.373 1672.53 420.572 C 1675.62 429.772 1670.78 439.753 1661.64 443.013 C 1655.57 445.177 1648.81 443.897 1643.95 439.666 C 1639.1 435.434 1636.91 428.911 1638.22 422.607 C 1639.54 416.302 1644.15 411.199 1650.3 409.262 z"/>
</svg>